<svg xmlns="http://www.w3.org/2000/svg" viewBox="0 0 100 100" width="100" height="100"><path fill="#8f9eb6" d="M87,38.297C87,27.64,78.303,19,67.575,19c-4.806,0-9.196,1.742-12.587,4.615C51.709,22.527,45.249,21,37,21c0,0-24-0.736-24,23.73c0,10.882,2.884,15.364,3.7,20.054c0.944,5.423,1.709,12.531,1.709,12.531C18.489,78.267,19.29,79,20.252,79H33V64c0,0,3.003,1,6,1s6-1,6-1v13c0,1.014,0.979,2,2,2h13c0,0,0.097-10.791,1-15.5s4-9.5,4-9.5c14.917,0,15,8,15,8v1c0,2.027-1.5,4-4,4c-2.041,0-4-1.973-4-4h-7c0,6.081,4.878,11,11,11s11-5.135,11-11.216v-0.838V41.054C87,41.054,87,38.613,87,38.297z"/><path fill="#fefdef" d="M92.5,55.5c-6.5-2-9.358-3.1-12.316-7.075l-0.002,0.001C79.827,47.871,79.208,47.5,78.5,47.5c-1.105,0-2,0.895-2,2c0,0.453,0.156,0.865,0.409,1.2l0,0c0.002,0.003,0.005,0.005,0.007,0.008c0.077,0.1,0.161,0.192,0.255,0.276C79.649,53.637,85.74,55.5,92.5,55.5z"/><path fill="#b3b2c3" d="M52.958,18.5c-5.823,0-12.458,5.598-12.458,16.364c0,9.691,5.154,19.291,15.333,23.636l3.942-18c0,0-2.275-6.006-2.275-7c0-1.105,0.895-2,2-2s2,0.895,2,2c0,0,2-1.962,2-5C63.5,22.976,58.781,18.5,52.958,18.5z"/><path fill="#1f212b" d="M76.5 37A2.5 2.5 0 1 0 76.5 42 2.5 2.5 0 1 0 76.5 37zM36.5 24.004c-.004 0-.008 0-.013 0-.244.006-.591.02-1.024.051-.275.021-.481.261-.462.536.02.263.239.463.498.463.013 0 .025 0 .038-.001.412-.031.743-.043.976-.049.275-.007.494-.236.487-.513C36.993 24.22 36.771 24.004 36.5 24.004zM33.427 24.281c-.683.101-1.367.229-2.037.38-.27.061-.438.328-.377.598.052.232.258.39.487.39.036 0 .073-.004.11-.013.645-.146 1.305-.269 1.963-.366.273-.04.462-.294.421-.567C33.954 24.429 33.695 24.239 33.427 24.281zM29.351 25.207c-3.199 1-5.874 2.532-7.95 4.556C17.816 33.273 16 38.31 16 44.73c0 2.698.181 5.263.552 7.841C16.588 52.82 16.802 53 17.046 53c.024 0 .048-.002.072-.005.273-.04.463-.293.424-.566C17.177 49.898 17 47.38 17 44.73c0-6.142 1.716-10.938 5.099-14.252 1.962-1.912 4.503-3.364 7.551-4.316.264-.083.41-.363.328-.627C29.896 25.272 29.617 25.124 29.351 25.207z"/><path fill="#1f212b" d="M92.647,55.022c-1.83-0.563-3.344-1.051-4.647-1.541V38.297C88,27.105,78.838,18,67.575,18c-2.93,0-5.76,0.606-8.411,1.804l0.012,0.026C57.404,18.677,55.263,18,52.958,18c-2.506,0-5.069,0.956-7.252,2.783l0.028-0.214C42.875,20.192,39.94,20,37.041,20c-0.003,0-0.007,0-0.011,0c-0.438-0.016-11.038-0.256-18.37,6.855C14.241,31.141,12,37.155,12,44.729c0,7.727,1.424,12.284,2.567,15.947c0.488,1.565,0.91,2.917,1.147,4.278c0.927,5.328,1.692,12.396,1.698,12.443C17.535,78.857,18.782,80,20.252,80H33c0.553,0,1-0.447,1-1V65.321C35.208,65.624,37.093,66,39,66s3.792-0.376,5-0.679V77c0,1.57,1.43,3,3,3h13c0.549,0,0.995-0.442,1-0.991c0.001-0.106,0.106-10.753,0.982-15.32c0.696-3.638,2.807-7.4,3.574-8.685C78.643,55.185,78.992,61.737,79,62v1c0,1.454-1.052,3-3,3c-1.486,0-3-1.514-3-3c0-0.553-0.447-1-1-1h-7c-0.553,0-1,0.447-1,1c0,6.617,5.383,12,12,12s12-5.48,12-12.216v-7.068C89.452,55.899,90.962,56,92.5,56c0.247,0,0.458-0.181,0.494-0.426C93.031,55.33,92.884,55.095,92.647,55.022z M52.958,19C58.495,19,63,23.262,63,28.5c0,1.736-0.715,3.108-1.256,3.898C61.336,31.57,60.483,31,59.5,31c-1.379,0-2.5,1.121-2.5,2.5c0,0.991,1.773,5.762,2.255,7.038l-3.779,17.258C46.53,53.725,41,44.994,41,34.863c0-5.517,1.774-9.659,4.305-12.331c0.055,0.007,0.112,0.012,0.167,0.019l0.031-0.231C47.666,20.138,50.346,19,52.958,19z M27,78h-4v-1c0-1.103,0.897-2,2-2s2,0.897,2,2V78z M32,78h-4v-1c0-1.103,0.897-2,2-2s2,0.897,2,2V78z M54,78h-4v-1c0-1.103,0.897-2,2-2s2,0.897,2,2V78z M55,78v-1c0-1.103,0.897-2,2-2s2,0.897,2,2c0,0.053,0.015,0.102,0.03,0.15c-0.007,0.314-0.013,0.607-0.017,0.85H55z M86,62.784C86,68.417,81.514,73,76,73c-5.177,0-9.447-3.954-9.95-9h5.07c0.521,2.166,2.647,4,4.88,4c3.13,0,5-2.542,5-5v-1.011C80.996,61.623,80.726,53,65,53c-0.339,0-0.655,0.172-0.84,0.457c-0.131,0.202-3.214,5.01-4.143,9.854c-0.556,2.904-0.811,7.956-0.926,11.544C58.551,74.328,57.814,74,57,74c-1.044,0-1.962,0.537-2.5,1.348C53.962,74.537,53.044,74,52,74c-1.654,0-3,1.346-3,3v1h-2c-0.468,0-1-0.532-1-1V64c0-0.321-0.154-0.623-0.415-0.812c-0.262-0.188-0.597-0.239-0.901-0.138C44.655,63.061,41.803,64,39,64c-2.791,0-5.656-0.939-5.685-0.949c-0.303-0.102-0.639-0.051-0.9,0.139C32.154,63.377,32,63.679,32,64v10.78c-0.532-0.48-1.229-0.78-2-0.78c-1.044,0-1.962,0.537-2.5,1.348C26.962,74.537,26.044,74,25,74c-1.654,0-3,1.346-3,3v1h-1.748c-0.438,0-0.81-0.338-0.849-0.793c-0.008-0.071-0.78-7.202-1.718-12.595c-0.26-1.49-0.721-2.968-1.209-4.532C15.373,56.548,14,52.15,14,44.729c0-7.006,2.032-12.532,6.04-16.427C26.752,21.782,36.878,22.005,37,22c2.37,0,4.741,0.136,7.072,0.391C41.647,25.237,40,29.427,40,34.863c0,10.745,5.991,19.979,15.637,24.097c0.062,0.026,0.13,0.04,0.196,0.04c0.079,0,0.157-0.019,0.229-0.056c0.132-0.068,0.228-0.191,0.259-0.337l3.942-18c0.021-0.095,0.014-0.194-0.021-0.284C59.376,38.033,58,34.157,58,33.5c0-0.827,0.673-1.5,1.5-1.5s1.5,0.673,1.5,1.5c0,0.201,0.121,0.383,0.307,0.461c0.185,0.077,0.399,0.036,0.544-0.104C61.938,33.771,64,31.711,64,28.5c0-2.808-1.172-5.357-3.067-7.242C63.05,20.439,65.274,20,67.575,20C77.734,20,86,28.208,86,38.297v14.348c-2.261-1.073-3.794-2.338-5.396-4.489C80.141,47.433,79.354,47,78.5,47c-1.379,0-2.5,1.121-2.5,2.5c0,0.54,0.176,1.059,0.518,1.51c0.096,0.126,0.202,0.241,0.288,0.315c1.74,1.863,5.126,3.315,9.194,4.079V62.784z M77.505,50.612c-0.07-0.062-0.134-0.131-0.196-0.214C77.106,50.132,77,49.821,77,49.5c0-0.827,0.673-1.5,1.5-1.5c0.511,0,0.983,0.26,1.282,0.724c2.385,3.203,4.67,4.591,8.928,6.077C83.74,54.271,79.482,52.727,77.505,50.612z"/><path fill="#1f212b" d="M44 34.36c-.276 0-.5.224-.5.5 0 5.198 1.592 10.033 4.603 13.98.099.13.247.197.397.197.106 0 .213-.033.303-.103.22-.167.263-.481.095-.7C46.021 44.463 44.5 39.838 44.5 34.86 44.5 34.584 44.276 34.36 44 34.36zM50.661 51.65c.097.088.218.132.339.132.135 0 .27-.055.368-.161.187-.203.174-.52-.029-.707-.337-.31-.662-.63-.977-.96-.191-.2-.508-.207-.707-.018-.2.191-.208.508-.018.707C49.968 50.989 50.309 51.325 50.661 51.65zM53.128 53.613c.087.059.185.087.282.087.159 0 .316-.076.413-.218.155-.229.097-.54-.131-.695-.304-.207-.6-.421-.889-.643-.219-.167-.532-.127-.701.094-.168.22-.125.533.094.701C52.501 53.171 52.811 53.396 53.128 53.613z"/></svg>